<svg xmlns="http://www.w3.org/2000/svg" viewBox="0 0 412 214" width="412" height="214" font-family="-apple-system,BlinkMacSystemFont,'Segoe UI',Helvetica,Arial,sans-serif" role="img" aria-label="Laptop Price Analysis">
<defs>
<linearGradient id="bgc" x1="0" y1="0" x2="1" y2="1">
<stop offset="0" stop-color="#0a100e"/><stop offset="1" stop-color="#101c18"/>
</linearGradient>
</defs>
<clipPath id="clip"><rect x="1" y="1" width="410" height="212" rx="12"/></clipPath>
<rect x="1" y="1" width="410" height="212" rx="12" fill="url(#bgc)" stroke="#22332d"/>
<rect x="1" y="1" width="5" height="212" fill="#38bdf8" clip-path="url(#clip)"/>
<g transform="translate(112,2) scale(.7)">
<circle cx="304" cy="54" r="3" fill="#38bdf8" fill-opacity=".7"/>
<circle cx="318" cy="46" r="4" fill="#38bdf8" fill-opacity=".7"/>
<circle cx="326" cy="58" r="2.5" fill="#38bdf8" fill-opacity=".7"/>
<circle cx="340" cy="38" r="3.5" fill="#38bdf8" fill-opacity=".7"/>
<circle cx="352" cy="48" r="3" fill="#38bdf8" fill-opacity=".7"/>
<circle cx="364" cy="30" r="4.5" fill="#38bdf8" fill-opacity=".7"/>
<circle cx="378" cy="40" r="3" fill="#38bdf8" fill-opacity=".7"/>
<circle cx="386" cy="24" r="3.5" fill="#38bdf8" fill-opacity=".7"/>
</g>
<text x="26" y="42" font-size="19" font-weight="800" fill="#f1f5f9">Laptop Price Analysis</text>
<text x="26" y="66" font-size="12" fill="#9aa9a4">Exploratory analysis of the Indian laptop market</text>
<text x="26" y="83" font-size="12" fill="#9aa9a4">with price segmentation and brand performance.</text>
<rect x="26" y="118" width="80" height="46" rx="7" fill="#ffffff" fill-opacity=".04" stroke="#22332d"/>
<text x="66" y="138" font-size="15" font-weight="800" fill="#f1f5f9" text-anchor="middle">EDA</text>
<text x="66" y="154" font-size="10" fill="#9aa9a4" text-anchor="middle">end to end</text>
<rect x="114.0" y="118" width="122" height="46" rx="7" fill="#ffffff" fill-opacity=".04" stroke="#22332d"/>
<text x="175" y="138" font-size="15" font-weight="800" fill="#f1f5f9" text-anchor="middle">Price tiers</text>
<text x="175" y="154" font-size="10" fill="#9aa9a4" text-anchor="middle">segmentation</text>
<rect x="243.7" y="118" width="78" height="46" rx="7" fill="#ffffff" fill-opacity=".04" stroke="#22332d"/>
<text x="283" y="138" font-size="15" font-weight="800" fill="#f1f5f9" text-anchor="middle">Brands</text>
<text x="283" y="154" font-size="10" fill="#9aa9a4" text-anchor="middle">compared</text>
<rect x="26" y="178" width="57" height="20" rx="10" fill="#38bdf8" fill-opacity=".14"/>
<text x="54" y="192" font-size="10.5" font-weight="600" fill="#38bdf8" text-anchor="middle">Python</text>
<rect x="88.53999999999999" y="178" width="57" height="20" rx="10" fill="#38bdf8" fill-opacity=".14"/>
<text x="117" y="192" font-size="10.5" font-weight="600" fill="#38bdf8" text-anchor="middle">Pandas</text>
<rect x="151.07999999999998" y="178" width="81" height="20" rx="10" fill="#38bdf8" fill-opacity=".14"/>
<text x="192" y="192" font-size="10.5" font-weight="600" fill="#38bdf8" text-anchor="middle">Matplotlib</text>
</svg>