<svg xmlns="http://www.w3.org/2000/svg" viewBox="0 0 412 214" width="412" height="214" font-family="-apple-system,BlinkMacSystemFont,'Segoe UI',Helvetica,Arial,sans-serif" role="img" aria-label="Crop Analysis">
<defs>
<linearGradient id="bgc" x1="0" y1="0" x2="1" y2="1">
<stop offset="0" stop-color="#0a100e"/><stop offset="1" stop-color="#101c18"/>
</linearGradient>
</defs>
<clipPath id="clip"><rect x="1" y="1" width="410" height="212" rx="12"/></clipPath>
<rect x="1" y="1" width="410" height="212" rx="12" fill="url(#bgc)" stroke="#22332d"/>
<rect x="1" y="1" width="5" height="212" fill="#fbbf24" clip-path="url(#clip)"/>
<g transform="translate(112,2) scale(.7)">
<rect x="306" y="46" width="9" height="16" rx="2" fill="#fbbf24" fill-opacity="0.35"/>
<rect x="320" y="36" width="9" height="26" rx="2" fill="#fbbf24" fill-opacity="0.46"/>
<rect x="334" y="42" width="9" height="20" rx="2" fill="#fbbf24" fill-opacity="0.57"/>
<rect x="348" y="28" width="9" height="34" rx="2" fill="#fbbf24" fill-opacity="0.68"/>
<rect x="362" y="34" width="9" height="28" rx="2" fill="#fbbf24" fill-opacity="0.79"/>
<rect x="376" y="22" width="9" height="40" rx="2" fill="#fbbf24" fill-opacity="0.90"/>
</g>
<text x="26" y="42" font-size="19" font-weight="800" fill="#f1f5f9">Crop Analysis</text>
<text x="26" y="66" font-size="12" fill="#9aa9a4">Interactive dashboard on India's crop production:</text>
<text x="26" y="83" font-size="12" fill="#9aa9a4">state-wise trends, yield, seasons, rainfall impact.</text>
<rect x="26" y="118" width="64" height="46" rx="7" fill="#ffffff" fill-opacity=".04" stroke="#22332d"/>
<text x="58" y="138" font-size="15" font-weight="800" fill="#f1f5f9" text-anchor="middle">47K+</text>
<text x="58" y="154" font-size="10" fill="#9aa9a4" text-anchor="middle">records</text>
<rect x="97.80000000000001" y="118" width="113" height="46" rx="7" fill="#ffffff" fill-opacity=".04" stroke="#22332d"/>
<text x="154" y="138" font-size="15" font-weight="800" fill="#f1f5f9" text-anchor="middle">State-wise</text>
<text x="154" y="154" font-size="10" fill="#9aa9a4" text-anchor="middle">drill-through</text>
<rect x="218.8" y="118" width="52" height="46" rx="7" fill="#ffffff" fill-opacity=".04" stroke="#22332d"/>
<text x="245" y="138" font-size="15" font-weight="800" fill="#f1f5f9" text-anchor="middle">DAX</text>
<text x="245" y="154" font-size="10" fill="#9aa9a4" text-anchor="middle">KPIs</text>
<rect x="26" y="178" width="69" height="20" rx="10" fill="#fbbf24" fill-opacity=".14"/>
<text x="60" y="192" font-size="10.5" font-weight="600" fill="#fbbf24" text-anchor="middle">Power BI</text>
<rect x="100.72" y="178" width="38" height="20" rx="10" fill="#fbbf24" fill-opacity=".14"/>
<text x="120" y="192" font-size="10.5" font-weight="600" fill="#fbbf24" text-anchor="middle">DAX</text>
<rect x="144.99" y="178" width="105" height="20" rx="10" fill="#fbbf24" fill-opacity=".14"/>
<text x="198" y="192" font-size="10.5" font-weight="600" fill="#fbbf24" text-anchor="middle">Data modelling</text>
</svg>