<svg xmlns="http://www.w3.org/2000/svg" viewBox="0 0 412 214" width="412" height="214" font-family="-apple-system,BlinkMacSystemFont,'Segoe UI',Helvetica,Arial,sans-serif" role="img" aria-label="Student Performance">
<defs>
<linearGradient id="bgcardstudent" x1="0" y1="0" x2="1" y2="1">
<stop offset="0" stop-color="#0a100e"/><stop offset="1" stop-color="#101c18"/>
</linearGradient>
<radialGradient id="gacardstudent" cx="1" cy="0" r="1">
<stop offset="0" stop-color="#b9ab99" stop-opacity=".05"/><stop offset="1" stop-color="#b9ab99" stop-opacity="0"/>
</radialGradient>
<radialGradient id="gbcardstudent" cx="0" cy="1" r=".9">
<stop offset="0" stop-color="#b9ab99" stop-opacity=".03"/><stop offset="1" stop-color="#b9ab99" stop-opacity="0"/>
</radialGradient>
<linearGradient id="nmcardstudent" x1="0" y1="0" x2="1" y2="0">
<stop offset="0" stop-color="#f4f6f5"/><stop offset="1" stop-color="#f4f6f5"/>
</linearGradient>
<linearGradient id="bdcardstudent" x1="0" y1="0" x2="1" y2="1">
<stop offset="0" stop-color="#22332d"/><stop offset="1" stop-color="#22332d"/>
</linearGradient>
</defs>
<clipPath id="clipcardstudent"><rect x="1" y="1" width="410" height="212" rx="12"/></clipPath>
<rect x="1" y="1" width="410" height="212" rx="12" fill="url(#bgcardstudent)"/>
<rect x="1" y="1" width="410" height="212" rx="12" fill="url(#gacardstudent)" stroke="#22332d"/>
<rect x="1" y="1" width="5" height="212" fill="#b9ab99" clip-path="url(#clipcardstudent)"/>
<g transform="translate(112,2) scale(.7)">
<style>
.ml{stroke-dasharray:1;animation:mline 6s linear infinite}
@keyframes mline{0%{stroke-dashoffset:1}30%{stroke-dashoffset:0}70%{stroke-dashoffset:0}95%,100%{stroke-dashoffset:-1}}
.mh{animation:mhead 6s linear infinite}
@keyframes mhead{0%,27%{opacity:0}32%{opacity:1}68%{opacity:1}74%,100%{opacity:0}}
.mb{transform-box:fill-box;transform-origin:50% 100%;animation:mbar 6s ease-in-out infinite backwards}
@keyframes mbar{0%{transform:scaleY(0)}12%{transform:scaleY(1)}62%{transform:scaleY(1)}74%,100%{transform:scaleY(0)}}
.md{transform-box:fill-box;transform-origin:50% 50%;animation:mdot 6s ease-in-out infinite backwards}
@keyframes mdot{0%{transform:scale(0);opacity:0}7%{transform:scale(1.5);opacity:1}12%{transform:scale(1);opacity:1}62%{transform:scale(1);opacity:1}72%,100%{transform:scale(0);opacity:0}}
.mf{animation:mfill 6s ease-in-out infinite}
@keyframes mfill{0%,22%{opacity:0}40%{opacity:1}68%{opacity:1}82%,100%{opacity:0}}
@media (prefers-reduced-motion:reduce){.ml,.mh,.mb,.md,.mf{animation:none}}
</style>
<path class="mf" d="M300 62 C322 62 326 24 344 24 C362 24 366 62 388 62" fill="#0f9d3a" fill-opacity=".45"/>
<path class="ml" pathLength="1" d="M300 62 C322 62 326 24 344 24 C362 24 366 62 388 62" fill="none" stroke="#5fe08a" stroke-width="2.5"/>
<line class="mf" x1="344" y1="24" x2="344" y2="62" stroke="#ff7a7a" stroke-width="2.5" stroke-dasharray="3 3"/>
</g>
<text x="26" y="42" font-size="19" font-weight="800" fill="#f4f6f5">Student Performance</text>
<text x="26" y="66" font-size="12" fill="#9aa9a4">Data cleaning and exploration to find the factors</text>
<text x="26" y="83" font-size="12" fill="#9aa9a4">that drive students' academic performance.</text>
<rect x="26" y="118" width="96" height="46" rx="7" fill="#ffffff" fill-opacity=".04" stroke="#22332d"/>
<text x="74" y="138" font-size="15" font-weight="800" fill="#f4f6f5" text-anchor="middle">Cleaning</text>
<text x="74" y="154" font-size="10" fill="#9aa9a4" text-anchor="middle">raw to tidy</text>
<rect x="129.6" y="118" width="107" height="46" rx="7" fill="#ffffff" fill-opacity=".04" stroke="#22332d"/>
<text x="183" y="138" font-size="15" font-weight="800" fill="#f4f6f5" text-anchor="middle">EDA</text>
<text x="183" y="154" font-size="10" fill="#9aa9a4" text-anchor="middle">factor analysis</text>
<rect x="244.6" y="118" width="87" height="46" rx="7" fill="#ffffff" fill-opacity=".04" stroke="#22332d"/>
<text x="288" y="138" font-size="15" font-weight="800" fill="#f4f6f5" text-anchor="middle">Visuals</text>
<text x="288" y="154" font-size="10" fill="#9aa9a4" text-anchor="middle">Seaborn</text>
<rect x="26" y="178" width="57" height="20" rx="10" fill="#b9ab99" fill-opacity=".14"/>
<text x="54" y="192" font-size="10.5" font-weight="600" fill="#b9ab99" text-anchor="middle">Python</text>
<rect x="88.53999999999999" y="178" width="50" height="20" rx="10" fill="#b9ab99" fill-opacity=".14"/>
<text x="114" y="192" font-size="10.5" font-weight="600" fill="#b9ab99" text-anchor="middle">NumPy</text>
<rect x="144.99" y="178" width="63" height="20" rx="10" fill="#b9ab99" fill-opacity=".14"/>
<text x="176" y="192" font-size="10.5" font-weight="600" fill="#b9ab99" text-anchor="middle">Seaborn</text>
</svg>