<svg xmlns="http://www.w3.org/2000/svg" viewBox="0 0 840 108" width="840" height="108" font-family="-apple-system,BlinkMacSystemFont,'Segoe UI',Helvetica,Arial,sans-serif" role="img" aria-label="Highlights">
<defs>
<linearGradient id="bgs" x1="0" y1="0" x2="1" y2="1">
<stop offset="0" stop-color="#0a100e"/><stop offset="1" stop-color="#101c18"/>
</linearGradient>
</defs>
<rect x="0.5" y="2.5" width="197" height="104" rx="10" fill="url(#bgs)" stroke="#22332d"/>
<rect x="16" y="2" width="166" height="3" rx="1.5" fill="#34d399"/>
<text x="99.0" y="50" font-size="30" font-weight="800" fill="#f1f5f9" text-anchor="middle">200+</text>
<text x="99.0" y="72" font-size="11.5" fill="#9aa9a4" text-anchor="middle">Indian stocks modelled,</text>
<text x="99.0" y="87" font-size="11.5" fill="#9aa9a4" text-anchor="middle">Stock Price Prediction</text>
<rect x="214.5" y="2.5" width="197" height="104" rx="10" fill="url(#bgs)" stroke="#22332d"/>
<rect x="230" y="2" width="166" height="3" rx="1.5" fill="#fbbf24"/>
<text x="313.0" y="50" font-size="30" font-weight="800" fill="#f1f5f9" text-anchor="middle">47K+</text>
<text x="313.0" y="72" font-size="11.5" fill="#9aa9a4" text-anchor="middle">crop records analysed,</text>
<text x="313.0" y="87" font-size="11.5" fill="#9aa9a4" text-anchor="middle">Power BI dashboard</text>
<rect x="428.5" y="2.5" width="197" height="104" rx="10" fill="url(#bgs)" stroke="#22332d"/>
<rect x="444" y="2" width="166" height="3" rx="1.5" fill="#38bdf8"/>
<text x="527.0" y="50" font-size="30" font-weight="800" fill="#f1f5f9" text-anchor="middle">8 ★</text>
<text x="527.0" y="72" font-size="11.5" fill="#9aa9a4" text-anchor="middle">stars on</text>
<text x="527.0" y="87" font-size="11.5" fill="#9aa9a4" text-anchor="middle">Stock Price Prediction</text>
<rect x="642.5" y="2.5" width="197" height="104" rx="10" fill="url(#bgs)" stroke="#22332d"/>
<rect x="658" y="2" width="166" height="3" rx="1.5" fill="#a78bfa"/>
<text x="741.0" y="50" font-size="30" font-weight="800" fill="#f1f5f9" text-anchor="middle">4</text>
<text x="741.0" y="72" font-size="11.5" fill="#9aa9a4" text-anchor="middle">featured projects,</text>
<text x="741.0" y="87" font-size="11.5" fill="#9aa9a4" text-anchor="middle">ML to BI dashboards</text>
</svg>